<svg xmlns="http://www.w3.org/2000/svg" viewBox="0 0 32 32" width="32" height="32">
  <defs>
    <linearGradient id="fistGradient" x1="0%" y1="0%" x2="100%" y2="100%">
      <stop offset="0%" style="stop-color:#FF6B6B;stop-opacity:1" />
      <stop offset="100%" style="stop-color:#FF8E53;stop-opacity:1" />
    </linearGradient>
    <linearGradient id="backgroundGradient" x1="0%" y1="0%" x2="100%" y2="100%">
      <stop offset="0%" style="stop-color:#4ECDC4;stop-opacity:1" />
      <stop offset="100%" style="stop-color:#45B7AA;stop-opacity:1" />
    </linearGradient>
  </defs>
  
  <!-- Background circle -->
  <circle cx="16" cy="16" r="15" fill="url(#backgroundGradient)" stroke="#2C3E50" stroke-width="1"/>
  
  <!-- Fist symbol -->
  <g transform="translate(8, 6)">
    <!-- Main fist shape -->
    <path d="M8 4 C8 2, 10 1, 12 2 C14 3, 15 5, 14 7 C15 8, 14 10, 12 9 C10 8, 8 6, 8 4 Z" 
          fill="url(#fistGradient)" 
          stroke="#2C3E50" 
          stroke-width="0.5"/>
    
    <!-- Thumb -->
    <path d="M2 6 C2 4, 4 3, 6 4 C7 5, 7 7, 6 8 C4 9, 2 8, 2 6 Z" 
          fill="url(#fistGradient)" 
          stroke="#2C3E50" 
          stroke-width="0.5"/>
    
    <!-- Fist lines for detail -->
    <line x1="10" y1="3" x2="10" y2="6" stroke="#2C3E50" stroke-width="0.3"/>
    <line x1="12" y1="4" x2="12" y2="7" stroke="#2C3E50" stroke-width="0.3"/>
    <line x1="13" y1="6" x2="13" y2="8" stroke="#2C3E50" stroke-width="0.3"/>
  </g>
  
  <!-- Small strike symbol (strikethrough) -->
  <line x1="6" y1="20" x2="26" y2="20" stroke="#2C3E50" stroke-width="2" stroke-linecap="round"/>
  <line x1="6" y1="22" x2="26" y2="22" stroke="#2C3E50" stroke-width="2" stroke-linecap="round"/>
</svg>
